<?xml version="1.0" encoding="UTF-8" standalone="no"?>
<!DOCTYPE svg PUBLIC "-//W3C//DTD SVG 1.1//EN"
 "http://www.w3.org/Graphics/SVG/1.1/DTD/svg11.dtd">
<!-- Generated by graphviz version 2.43.0 (0)
 -->
<!-- Title: Policy Pages: 1 -->
<svg width="789pt" height="982pt"
 viewBox="0.00 0.00 788.70 982.20" xmlns="http://www.w3.org/2000/svg" xmlns:xlink="http://www.w3.org/1999/xlink">
<g id="graph0" class="graph" transform="scale(1 1) rotate(0) translate(21.6 960.6)">
<title>Policy</title>
<polygon fill="white" stroke="transparent" points="-21.6,21.6 -21.6,-960.6 767.1,-960.6 767.1,21.6 -21.6,21.6"/>
<text text-anchor="middle" x="372.75" y="-920.6" font-family="DejaVu Sans" font-size="18.00">TrayAgent: perception → decision → action (≤ 5 steps, ≤ 20 s)</text>
<!-- start -->
<g id="node1" class="node">
<title>start</title>
<polygon fill="#f1f5f9" stroke="#475569" points="410,-911 222,-911 222,-875 416,-875 416,-905 410,-911"/>
<polyline fill="none" stroke="#475569" points="410,-911 410,-905 "/>
<polyline fill="none" stroke="#475569" points="416,-905 410,-905 "/>
<text text-anchor="middle" x="319" y="-896.2" font-family="DejaVu Sans" font-size="11.00">photo + POS count</text>
<text text-anchor="middle" x="319" y="-884.2" font-family="DejaVu Sans" font-size="11.00">(+ yesterday&#39;s approved photo)</text>
</g>
<!-- assess -->
<g id="node2" class="node">
<title>assess</title>
<path fill="#dbeafe" stroke="#475569" d="M444.5,-842C444.5,-842 193.5,-842 193.5,-842 187.5,-842 181.5,-836 181.5,-830 181.5,-830 181.5,-818 181.5,-818 181.5,-812 187.5,-806 193.5,-806 193.5,-806 444.5,-806 444.5,-806 450.5,-806 456.5,-812 456.5,-818 456.5,-818 456.5,-830 456.5,-830 456.5,-836 450.5,-842 444.5,-842"/>
<text text-anchor="middle" x="319" y="-827.2" font-family="DejaVu Sans" font-size="11.00">1 &#160;assess_quality</text>
<text text-anchor="middle" x="319" y="-815.2" font-family="DejaVu Sans" font-size="11.00">Laplacian var · HSV glare · p99 · tray coverage</text>
</g>
<!-- start&#45;&gt;assess -->
<g id="edge1" class="edge">
<title>start&#45;&gt;assess</title>
<path fill="none" stroke="#64748b" d="M319,-874.75C319,-868 319,-860.09 319,-852.59"/>
<polygon fill="#64748b" stroke="#64748b" points="322.5,-852.43 319,-842.43 315.5,-852.43 322.5,-852.43"/>
</g>
<!-- q -->
<g id="node3" class="node">
<title>q</title>
<path fill="#fef9c3" stroke="#475569" d="M307.68,-769.01C307.68,-769.01 279.27,-758.99 279.27,-758.99 273.61,-757 273.61,-753 279.27,-751.01 279.27,-751.01 307.68,-740.99 307.68,-740.99 313.34,-739 324.66,-739 330.32,-740.99 330.32,-740.99 358.73,-751.01 358.73,-751.01 364.39,-753 364.39,-757 358.73,-758.99 358.73,-758.99 330.32,-769.01 330.32,-769.01 324.66,-771 313.34,-771 307.68,-769.01"/>
<text text-anchor="middle" x="319" y="-752.2" font-family="DejaVu Sans" font-size="11.00">quality?</text>
</g>
<!-- assess&#45;&gt;q -->
<g id="edge2" class="edge">
<title>assess&#45;&gt;q</title>
<path fill="none" stroke="#64748b" d="M319,-805.75C319,-799 319,-791.09 319,-783.59"/>
<polygon fill="#64748b" stroke="#64748b" points="322.5,-783.43 319,-773.43 315.5,-783.43 322.5,-783.43"/>
</g>
<!-- glare -->
<g id="node4" class="node">
<title>glare</title>
<path fill="#dbeafe" stroke="#475569" d="M249,-679C249,-679 119,-679 119,-679 113,-679 107,-673 107,-667 107,-667 107,-655 107,-655 107,-649 113,-643 119,-643 119,-643 249,-643 249,-643 255,-643 261,-649 261,-655 261,-655 261,-667 261,-667 261,-673 255,-679 249,-679"/>
<text text-anchor="middle" x="184" y="-664.2" font-family="DejaVu Sans" font-size="11.00">reduce_glare</text>
<text text-anchor="middle" x="184" y="-652.2" font-family="DejaVu Sans" font-size="11.00">inpaint (TELEA) + CLAHE</text>
</g>
<!-- q&#45;&gt;glare -->
<g id="edge4" class="edge">
<title>q&#45;&gt;glare</title>
<path fill="none" stroke="#64748b" d="M294.96,-745.26C280.46,-739.45 261.96,-731.04 247,-721 232.3,-711.13 217.76,-697.81 206.35,-686.32"/>
<polygon fill="#64748b" stroke="#64748b" points="208.81,-683.83 199.34,-679.09 203.79,-688.71 208.81,-683.83"/>
<text text-anchor="middle" x="272" y="-707.5" font-family="DejaVu Sans" font-size="10.00">mild glare</text>
</g>
<!-- count -->
<g id="node5" class="node">
<title>count</title>
<path fill="#dbeafe" stroke="#475569" d="M364,-606C364,-606 138,-606 138,-606 132,-606 126,-600 126,-594 126,-594 126,-582 126,-582 126,-576 132,-570 138,-570 138,-570 364,-570 364,-570 370,-570 376,-576 376,-582 376,-582 376,-594 376,-594 376,-600 370,-606 364,-606"/>
<text text-anchor="middle" x="251" y="-591.2" font-family="DejaVu Sans" font-size="11.00">rectify_tray + detect</text>
<text text-anchor="middle" x="251" y="-579.2" font-family="DejaVu Sans" font-size="11.00">homography · cv2.dnn YOLOX · NMSBoxes</text>
</g>
<!-- q&#45;&gt;count -->
<g id="edge6" class="edge">
<title>q&#45;&gt;count</title>
<path fill="none" stroke="#64748b" d="M313.93,-738.5C310.24,-727.43 305.03,-712.22 300,-699 289.72,-672 286.81,-665.36 275,-639 271.51,-631.21 267.56,-622.83 263.89,-615.19"/>
<polygon fill="#64748b" stroke="#64748b" points="266.96,-613.49 259.44,-606.02 260.66,-616.55 266.96,-613.49"/>
<text text-anchor="middle" x="300.5" y="-658.5" font-family="DejaVu Sans" font-size="10.00">ok</text>
</g>
<!-- recap -->
<g id="node13" class="node">
<title>recap</title>
<path fill="#ede9fe" stroke="#475569" d="M495,-683C495,-683 373,-683 373,-683 367,-683 361,-677 361,-671 361,-671 361,-651 361,-651 361,-645 367,-639 373,-639 373,-639 495,-639 495,-639 501,-639 507,-645 507,-651 507,-651 507,-671 507,-671 507,-677 501,-683 495,-683"/>
<text text-anchor="middle" x="434" y="-670.2" font-family="DejaVu Sans" font-size="11.00">REQUEST RE&#45;SHOT</text>
<text text-anchor="middle" x="434" y="-658.2" font-family="DejaVu Sans" font-size="11.00">specific instruction</text>
<text text-anchor="middle" x="434" y="-646.2" font-family="DejaVu Sans" font-size="11.00">status needs_recapture</text>
</g>
<!-- q&#45;&gt;recap -->
<g id="edge3" class="edge">
<title>q&#45;&gt;recap</title>
<path fill="none" stroke="#64748b" d="M334.03,-741.97C350.55,-728.76 377.64,-707.09 399.45,-689.64"/>
<polygon fill="#64748b" stroke="#64748b" points="401.9,-692.16 407.52,-683.18 397.53,-686.7 401.9,-692.16"/>
<text text-anchor="middle" x="466" y="-713" font-family="DejaVu Sans" font-size="10.00">blur · tray not in frame</text>
<text text-anchor="middle" x="466" y="-702" font-family="DejaVu Sans" font-size="10.00">severe glare / dark (1st attempt)</text>
</g>
<!-- glare&#45;&gt;count -->
<g id="edge5" class="edge">
<title>glare&#45;&gt;count</title>
<path fill="none" stroke="#64748b" d="M200.22,-642.81C208.53,-634 218.8,-623.13 227.92,-613.46"/>
<polygon fill="#64748b" stroke="#64748b" points="230.61,-615.7 234.93,-606.03 225.52,-610.9 230.61,-615.7"/>
</g>
<!-- dense -->
<g id="node6" class="node">
<title>dense</title>
<path fill="#fef9c3" stroke="#475569" d="M239.22,-534.73C239.22,-534.73 169.19,-521.27 169.19,-521.27 163.3,-520.13 163.3,-517.87 169.19,-516.73 169.19,-516.73 239.22,-503.27 239.22,-503.27 245.11,-502.13 256.89,-502.13 262.78,-503.27 262.78,-503.27 332.81,-516.73 332.81,-516.73 338.7,-517.87 338.7,-520.13 332.81,-521.27 332.81,-521.27 262.78,-534.73 262.78,-534.73 256.89,-535.87 245.11,-535.87 239.22,-534.73"/>
<text text-anchor="middle" x="251" y="-516.2" font-family="DejaVu Sans" font-size="11.00">dense or empty?</text>
</g>
<!-- count&#45;&gt;dense -->
<g id="edge7" class="edge">
<title>count&#45;&gt;dense</title>
<path fill="none" stroke="#64748b" d="M251,-569.75C251,-563 251,-555.09 251,-547.59"/>
<polygon fill="#64748b" stroke="#64748b" points="254.5,-547.43 251,-537.43 247.5,-547.43 254.5,-547.43"/>
</g>
<!-- tile -->
<g id="node7" class="node">
<title>tile</title>
<path fill="#dbeafe" stroke="#475569" d="M256,-458C256,-458 94,-458 94,-458 88,-458 82,-452 82,-446 82,-446 82,-434 82,-434 82,-428 88,-422 94,-422 94,-422 256,-422 256,-422 262,-422 268,-428 268,-434 268,-434 268,-446 268,-446 268,-452 262,-458 256,-458"/>
<text text-anchor="middle" x="175" y="-443.2" font-family="DejaVu Sans" font-size="11.00">tile_detect</text>
<text text-anchor="middle" x="175" y="-431.2" font-family="DejaVu Sans" font-size="11.00">overlapping tiles + global NMS</text>
</g>
<!-- dense&#45;&gt;tile -->
<g id="edge8" class="edge">
<title>dense&#45;&gt;tile</title>
<path fill="none" stroke="#64748b" d="M236.7,-503.52C226.16,-492.84 211.57,-478.05 199.23,-465.55"/>
<polygon fill="#64748b" stroke="#64748b" points="201.4,-462.77 191.88,-458.11 196.42,-467.68 201.4,-462.77"/>
<text text-anchor="middle" x="227" y="-477" font-family="DejaVu Sans" font-size="10.00">yes</text>
</g>
<!-- unc -->
<g id="node8" class="node">
<title>unc</title>
<path fill="#fef9c3" stroke="#475569" d="M238.18,-386.9C238.18,-386.9 160.41,-373.1 160.41,-373.1 154.51,-372.05 154.51,-369.95 160.41,-368.9 160.41,-368.9 238.18,-355.1 238.18,-355.1 244.09,-354.05 255.91,-354.05 261.82,-355.1 261.82,-355.1 339.59,-368.9 339.59,-368.9 345.49,-369.95 345.49,-372.05 339.59,-373.1 339.59,-373.1 261.82,-386.9 261.82,-386.9 255.91,-387.95 244.09,-387.95 238.18,-386.9"/>
<text text-anchor="middle" x="250" y="-368.2" font-family="DejaVu Sans" font-size="11.00">uncertain regions?</text>
</g>
<!-- dense&#45;&gt;unc -->
<g id="edge9" class="edge">
<title>dense&#45;&gt;unc</title>
<path fill="none" stroke="#64748b" d="M261.63,-502.53C268.96,-490.87 278.07,-474.18 282,-458 285.78,-442.45 286.49,-437.36 282,-422 279.27,-412.66 274.19,-403.4 268.88,-395.44"/>
<polygon fill="#64748b" stroke="#64748b" points="271.56,-393.17 262.89,-387.07 265.86,-397.24 271.56,-393.17"/>
<text text-anchor="middle" x="292.5" y="-437.5" font-family="DejaVu Sans" font-size="10.00">no</text>
</g>
<!-- tile&#45;&gt;unc -->
<g id="edge10" class="edge">
<title>tile&#45;&gt;unc</title>
<path fill="none" stroke="#64748b" d="M194.31,-421.75C204.14,-412.97 216.16,-402.23 226.51,-392.98"/>
<polygon fill="#64748b" stroke="#64748b" points="228.91,-395.53 234.04,-386.26 224.25,-390.31 228.91,-395.53"/>
</g>
<!-- zoom -->
<g id="node9" class="node">
<title>zoom</title>
<path fill="#dbeafe" stroke="#475569" d="M247.5,-310C247.5,-310 116.5,-310 116.5,-310 110.5,-310 104.5,-304 104.5,-298 104.5,-298 104.5,-286 104.5,-286 104.5,-280 110.5,-274 116.5,-274 116.5,-274 247.5,-274 247.5,-274 253.5,-274 259.5,-280 259.5,-286 259.5,-286 259.5,-298 259.5,-298 259.5,-304 253.5,-310 247.5,-310"/>
<text text-anchor="middle" x="182" y="-295.2" font-family="DejaVu Sans" font-size="11.00">zoom_recount</text>
<text text-anchor="middle" x="182" y="-283.2" font-family="DejaVu Sans" font-size="11.00">crop · upscale · re&#45;detect</text>
</g>
<!-- unc&#45;&gt;zoom -->
<g id="edge11" class="edge">
<title>unc&#45;&gt;zoom</title>
<path fill="none" stroke="#64748b" d="M236.89,-355.15C227.58,-344.61 214.86,-330.21 204.01,-317.93"/>
<polygon fill="#64748b" stroke="#64748b" points="206.45,-315.4 197.21,-310.22 201.2,-320.03 206.45,-315.4"/>
<text text-anchor="middle" x="230" y="-329" font-family="DejaVu Sans" font-size="10.00">yes</text>
</g>
<!-- pos -->
<g id="node10" class="node">
<title>pos</title>
<path fill="#fef9c3" stroke="#475569" d="M238.28,-238.42C238.28,-238.42 179.94,-225.58 179.94,-225.58 174.08,-224.29 174.08,-221.71 179.94,-220.42 179.94,-220.42 238.28,-207.58 238.28,-207.58 244.14,-206.29 255.86,-206.29 261.72,-207.58 261.72,-207.58 320.06,-220.42 320.06,-220.42 325.92,-221.71 325.92,-224.29 320.06,-225.58 320.06,-225.58 261.72,-238.42 261.72,-238.42 255.86,-239.71 244.14,-239.71 238.28,-238.42"/>
<text text-anchor="middle" x="250" y="-220.2" font-family="DejaVu Sans" font-size="11.00">count = POS ?</text>
</g>
<!-- unc&#45;&gt;pos -->
<g id="edge12" class="edge">
<title>unc&#45;&gt;pos</title>
<path fill="none" stroke="#64748b" d="M258.25,-354.21C263.93,-342.39 270.99,-325.64 274,-310 277.03,-294.29 277.55,-289.6 274,-274 271.99,-265.19 268.23,-256.12 264.28,-248.16"/>
<polygon fill="#64748b" stroke="#64748b" points="267.24,-246.29 259.45,-239.11 261.06,-249.58 267.24,-246.29"/>
<text text-anchor="middle" x="283.5" y="-289.5" font-family="DejaVu Sans" font-size="10.00">no</text>
</g>
<!-- zoom&#45;&gt;pos -->
<g id="edge13" class="edge">
<title>zoom&#45;&gt;pos</title>
<path fill="none" stroke="#64748b" d="M199.51,-273.75C208.24,-265.14 218.89,-254.65 228.15,-245.53"/>
<polygon fill="#64748b" stroke="#64748b" points="230.86,-247.77 235.53,-238.26 225.95,-242.78 230.86,-247.77"/>
</g>
<!-- cmp -->
<g id="node11" class="node">
<title>cmp</title>
<path fill="#dbeafe" stroke="#475569" d="M733.5,-148C733.5,-148 512.5,-148 512.5,-148 506.5,-148 500.5,-142 500.5,-136 500.5,-136 500.5,-124 500.5,-124 500.5,-118 506.5,-112 512.5,-112 512.5,-112 733.5,-112 733.5,-112 739.5,-112 745.5,-118 745.5,-124 745.5,-124 745.5,-136 745.5,-136 745.5,-142 739.5,-148 733.5,-148"/>
<text text-anchor="middle" x="623" y="-133.2" font-family="DejaVu Sans" font-size="11.00">compare_previous</text>
<text text-anchor="middle" x="623" y="-121.2" font-family="DejaVu Sans" font-size="11.00">ORB/SIFT · RANSAC homography · absdiff</text>
</g>
<!-- pos&#45;&gt;cmp -->
<g id="edge15" class="edge">
<title>pos&#45;&gt;cmp</title>
<path fill="none" stroke="#64748b" d="M286.79,-213.03C346.01,-198.58 463.85,-169.83 543.07,-150.5"/>
<polygon fill="#64748b" stroke="#64748b" points="544.13,-153.84 553.02,-148.07 542.47,-147.04 544.13,-153.84"/>
<text text-anchor="middle" x="465.5" y="-181" font-family="DejaVu Sans" font-size="10.00">no, has previous</text>
</g>
<!-- conf -->
<g id="node12" class="node">
<title>conf</title>
<path fill="#fef9c3" stroke="#475569" d="M84.62,-158.21C84.62,-158.21 11.38,-133.79 11.38,-133.79 5.69,-131.9 5.69,-128.1 11.38,-126.21 11.38,-126.21 84.62,-101.79 84.62,-101.79 90.31,-99.9 101.69,-99.9 107.38,-101.79 107.38,-101.79 180.62,-126.21 180.62,-126.21 186.31,-128.1 186.31,-131.9 180.62,-133.79 180.62,-133.79 107.38,-158.21 107.38,-158.21 101.69,-160.1 90.31,-160.1 84.62,-158.21"/>
<text text-anchor="middle" x="96" y="-133.2" font-family="DejaVu Sans" font-size="11.00">confident &amp;</text>
<text text-anchor="middle" x="96" y="-121.2" font-family="DejaVu Sans" font-size="11.00">not degraded?</text>
</g>
<!-- pos&#45;&gt;conf -->
<g id="edge14" class="edge">
<title>pos&#45;&gt;conf</title>
<path fill="none" stroke="#64748b" d="M218.19,-211.94C202.28,-206.27 183.04,-198.43 167,-189 153.4,-181 139.69,-170.5 127.99,-160.64"/>
<polygon fill="#64748b" stroke="#64748b" points="130.09,-157.83 120.24,-153.95 125.52,-163.13 130.09,-157.83"/>
<text text-anchor="middle" x="197.5" y="-181" font-family="DejaVu Sans" font-size="10.00">yes / no POS</text>
</g>
<!-- esc -->
<g id="node15" class="node">
<title>esc</title>
<path fill="#fee2e2" stroke="#475569" d="M447.5,-44C447.5,-44 262.5,-44 262.5,-44 256.5,-44 250.5,-38 250.5,-32 250.5,-32 250.5,-12 250.5,-12 250.5,-6 256.5,0 262.5,0 262.5,0 447.5,0 447.5,0 453.5,0 459.5,-6 459.5,-12 459.5,-12 459.5,-32 459.5,-32 459.5,-38 453.5,-44 447.5,-44"/>
<text text-anchor="middle" x="355" y="-31.2" font-family="DejaVu Sans" font-size="11.00">ESCALATE + render_evidence</text>
<text text-anchor="middle" x="355" y="-19.2" font-family="DejaVu Sans" font-size="11.00">status awaiting_approval</text>
<text text-anchor="middle" x="355" y="-7.2" font-family="DejaVu Sans" font-size="11.00">→ human approve / correct / reject</text>
</g>
<!-- pos&#45;&gt;esc -->
<g id="edge16" class="edge">
<title>pos&#45;&gt;esc</title>
<path fill="none" stroke="#64748b" d="M248.28,-205.18C246.51,-180.19 246.24,-132.48 265,-98 275.44,-78.81 292.97,-62.52 309.79,-50.07"/>
<polygon fill="#64748b" stroke="#64748b" points="311.83,-52.91 317.96,-44.27 307.78,-47.21 311.83,-52.91"/>
<text text-anchor="middle" x="303" y="-127.5" font-family="DejaVu Sans" font-size="10.00">no, no previous</text>
</g>
<!-- cmp&#45;&gt;esc -->
<g id="edge17" class="edge">
<title>cmp&#45;&gt;esc</title>
<path fill="none" stroke="#64748b" d="M579.94,-111.97C536.02,-94.6 467.4,-67.46 417.5,-47.72"/>
<polygon fill="#64748b" stroke="#64748b" points="418.68,-44.42 408.1,-44 416.11,-50.93 418.68,-44.42"/>
<text text-anchor="middle" x="537.5" y="-74" font-family="DejaVu Sans" font-size="10.00">changed regions</text>
<text text-anchor="middle" x="537.5" y="-63" font-family="DejaVu Sans" font-size="10.00">localised</text>
</g>
<!-- accept -->
<g id="node14" class="node">
<title>accept</title>
<path fill="#dcfce7" stroke="#475569" d="M150.5,-40C150.5,-40 41.5,-40 41.5,-40 35.5,-40 29.5,-34 29.5,-28 29.5,-28 29.5,-16 29.5,-16 29.5,-10 35.5,-4 41.5,-4 41.5,-4 150.5,-4 150.5,-4 156.5,-4 162.5,-10 162.5,-16 162.5,-16 162.5,-28 162.5,-28 162.5,-34 156.5,-40 150.5,-40"/>
<text text-anchor="middle" x="96" y="-25.2" font-family="DejaVu Sans" font-size="11.00">AUTO&#45;ACCEPT</text>
<text text-anchor="middle" x="96" y="-13.2" font-family="DejaVu Sans" font-size="11.00">inventory unchanged</text>
</g>
<!-- conf&#45;&gt;accept -->
<g id="edge18" class="edge">
<title>conf&#45;&gt;accept</title>
<path fill="none" stroke="#64748b" d="M96,-97.77C96,-82.78 96,-64.98 96,-50.51"/>
<polygon fill="#64748b" stroke="#64748b" points="99.5,-50.19 96,-40.19 92.5,-50.19 99.5,-50.19"/>
<text text-anchor="middle" x="105" y="-68.5" font-family="DejaVu Sans" font-size="10.00">yes</text>
</g>
<!-- conf&#45;&gt;esc -->
<g id="edge19" class="edge">
<title>conf&#45;&gt;esc</title>
<path fill="none" stroke="#64748b" d="M126.64,-108.16C150.01,-93.05 183.44,-73.04 215,-60 226.55,-55.23 238.89,-50.91 251.29,-47.06"/>
<polygon fill="#64748b" stroke="#64748b" points="252.66,-50.3 261.22,-44.07 250.64,-43.6 252.66,-50.3"/>
<text text-anchor="middle" x="221.5" y="-68.5" font-family="DejaVu Sans" font-size="10.00">no</text>
</g>
<!-- budget -->
<g id="node16" class="node">
<title>budget</title>
<path fill="white" stroke="transparent" d="M459,-148C459,-148 367,-148 367,-148 361,-148 355,-142 355,-136 355,-136 355,-124 355,-124 355,-118 361,-112 367,-112 367,-112 459,-112 459,-112 465,-112 471,-118 471,-124 471,-124 471,-136 471,-136 471,-142 465,-148 459,-148"/>
<text text-anchor="middle" x="413" y="-133.2" font-family="DejaVu Sans" font-size="11.00" fill="#b91c1c">budget exhausted</text>
<text text-anchor="middle" x="413" y="-121.2" font-family="DejaVu Sans" font-size="11.00" fill="#b91c1c">(steps or time)</text>
</g>
<!-- budget&#45;&gt;esc -->
<g id="edge20" class="edge">
<title>budget&#45;&gt;esc</title>
<path fill="none" stroke="#b91c1c" stroke-dasharray="5,2" d="M403.68,-111.97C394.99,-96.08 381.82,-72.01 371.37,-52.92"/>
<polygon fill="#b91c1c" stroke="#b91c1c" points="374.36,-51.09 366.49,-44 368.22,-54.45 374.36,-51.09"/>
</g>
</g>
</svg>
